<svg xmlns="http://www.w3.org/2000/svg" viewBox="0 0 59.76 40.83"><defs><style>.cls-1{fill:#999;}.cls-2{fill:#adeef7;}</style></defs><g id="Capa_2" data-name="Capa 2"><g id="Capa_1-2" data-name="Capa 1"><path class="cls-1" d="M36.82,40.83a3.35,3.35,0,0,1-2.35-.8,3.22,3.22,0,0,1-.8-2.35V3.21a3.22,3.22,0,0,1,.8-2.35A3.29,3.29,0,0,1,36.88,0H57.3a2.36,2.36,0,0,1,1.83.63,2.21,2.21,0,0,1,.63,1.72,2.5,2.5,0,0,1-.63,1.84,2.36,2.36,0,0,1-1.83.63H39.63v12.9H56.15a2.42,2.42,0,0,1,1.78.63,2.11,2.11,0,0,1,.69,1.72,2.39,2.39,0,0,1-.69,1.84,2.42,2.42,0,0,1-1.78.63H39.63V37.68C39.63,39.78,38.7,40.83,36.82,40.83Z"/><path class="cls-2" d="M2.87,40.83a2.84,2.84,0,0,1-2.12-.75A3.05,3.05,0,0,1,0,37.9V15a2.93,2.93,0,0,1,.75-2.18A2.76,2.76,0,0,1,2.81,12a2.64,2.64,0,0,1,2.06.75A2.93,2.93,0,0,1,5.62,15v4.47l-.63-1a9.39,9.39,0,0,1,4-4.82,11.52,11.52,0,0,1,6.19-1.66,10.84,10.84,0,0,1,5.5,1.26A7.4,7.4,0,0,1,24,16.92a15.43,15.43,0,0,1,1.09,6.25V37.9a3.05,3.05,0,0,1-.75,2.18,2.84,2.84,0,0,1-2.12.75A3,3,0,0,1,20,40.08a3.09,3.09,0,0,1-.74-2.18V23.51q0-3.61-1.44-5.27a5.32,5.32,0,0,0-4.35-1.67,7.48,7.48,0,0,0-5.62,2.18A8.13,8.13,0,0,0,5.79,24.6V37.9A2.59,2.59,0,0,1,2.87,40.83Z"/></g></g></svg>