<svg width="148" height="42" viewBox="0 0 148 42" fill="none" xmlns="http://www.w3.org/2000/svg">
<path d="M36.8248 41.1731C35.8309 41.1731 35.0472 40.9055 34.4737 40.3703C33.9385 39.8351 33.6709 39.0514 33.6709 38.0192V3.55534C33.6709 2.52314 33.9385 1.73944 34.4737 1.20423C35.0472 0.630785 35.85 0.344064 36.8822 0.344064H57.2967C58.1378 0.344064 58.7494 0.554327 59.1317 0.974853C59.5523 1.35715 59.7625 1.93059 59.7625 2.69518C59.7625 3.498 59.5523 4.10967 59.1317 4.53019C58.7494 4.95072 58.1378 5.16098 57.2967 5.16098H39.6347V18.0634H56.1498C56.9144 18.0634 57.507 18.2737 57.9275 18.6942C58.3863 19.0765 58.6156 19.6499 58.6156 20.4145C58.6156 21.2174 58.3863 21.829 57.9275 22.2496C57.507 22.6701 56.9144 22.8803 56.1498 22.8803H39.6347V38.0192C39.6347 40.1218 38.6981 41.1731 36.8248 41.1731Z" fill="#999999"/>
<path d="M69.2834 41.1158C68.3659 41.1158 67.6587 40.8482 67.1617 40.313C66.6647 39.7395 66.4162 38.9558 66.4162 37.9619V15.5976C66.4162 14.6037 66.6647 13.8391 67.1617 13.3039C67.6587 12.7686 68.3659 12.501 69.2834 12.501C70.201 12.501 70.9082 12.7686 71.4052 13.3039C71.9404 13.8391 72.208 14.6037 72.208 15.5976V37.9619C72.208 38.9558 71.9595 39.7395 71.4625 40.313C70.9655 40.8482 70.2392 41.1158 69.2834 41.1158ZM69.2834 6.53724C68.1366 6.53724 67.2382 6.25052 66.5883 5.67708C65.9766 5.10363 65.6708 4.30081 65.6708 3.26862C65.6708 2.19819 65.9766 1.39537 66.5883 0.860162C67.2382 0.286721 68.1366 0 69.2834 0C70.4303 0 71.3096 0.286721 71.9213 0.860162C72.5712 1.39537 72.8961 2.19819 72.8961 3.26862C72.8961 4.30081 72.5712 5.10363 71.9213 5.67708C71.3096 6.25052 70.4303 6.53724 69.2834 6.53724Z" fill="#999999"/>
<path d="M90.1661 41.2878C88.484 41.2878 86.7446 41.0967 84.9478 40.7144C83.1893 40.3321 81.5645 39.6822 80.0736 38.7647C79.5766 38.4206 79.2325 38.0383 79.0414 37.6178C78.8502 37.1973 78.7738 36.7768 78.812 36.3562C78.8885 35.8975 79.0605 35.5152 79.3281 35.2093C79.6339 34.8653 79.9971 34.655 80.4176 34.5786C80.8764 34.5021 81.3543 34.5977 81.8512 34.8653C83.3422 35.7063 84.7758 36.2989 86.152 36.6429C87.5283 36.9488 88.8855 37.1017 90.2235 37.1017C92.2497 37.1017 93.7788 36.7385 94.811 36.0122C95.8432 35.2858 96.3593 34.311 96.3593 33.0876C96.3593 32.0936 96.0153 31.3291 95.3271 30.7938C94.639 30.2204 93.6068 29.7808 92.2305 29.4749L86.7828 28.3854C84.4126 27.8884 82.6158 27.0091 81.3925 25.7475C80.1691 24.486 79.5575 22.8803 79.5575 20.9306C79.5575 19.1721 80.0353 17.6429 80.9911 16.3431C81.9468 15.0433 83.2848 14.0493 85.0052 13.3612C86.7255 12.6348 88.7134 12.2717 90.969 12.2717C92.6511 12.2717 94.2376 12.4819 95.7285 12.9024C97.2195 13.323 98.5957 13.9538 99.8573 14.7948C100.354 15.0624 100.679 15.4256 100.832 15.8843C100.985 16.3049 101.004 16.7254 100.89 17.1459C100.813 17.5664 100.622 17.9487 100.316 18.2928C100.01 18.5986 99.6279 18.7898 99.1692 18.8662C98.7487 18.9045 98.2708 18.7898 97.7356 18.5222C96.5887 17.7958 95.4418 17.2797 94.2949 16.9739C93.1863 16.6681 92.0776 16.5151 90.969 16.5151C88.9428 16.5151 87.4136 16.8974 86.3814 17.662C85.3875 18.3884 84.8905 19.3823 84.8905 20.6439C84.8905 21.5997 85.1963 22.3834 85.808 22.995C86.4197 23.6067 87.3754 24.0463 88.6752 24.3139L94.1229 25.4035C96.6078 25.9005 98.4811 26.7415 99.7426 27.9266C101.042 29.1117 101.692 30.7174 101.692 32.7435C101.692 35.3814 100.641 37.4649 98.5384 38.9941C96.4358 40.5232 93.645 41.2878 90.1661 41.2878Z" fill="#999999"/>
<path d="M111.004 41.1158C110.086 41.1158 109.379 40.8482 108.882 40.313C108.385 39.7395 108.136 38.9558 108.136 37.9619V15.5976C108.136 14.6037 108.385 13.8391 108.882 13.3039C109.379 12.7686 110.086 12.501 111.004 12.501C111.921 12.501 112.628 12.7686 113.125 13.3039C113.661 13.8391 113.928 14.6037 113.928 15.5976V37.9619C113.928 38.9558 113.68 39.7395 113.183 40.313C112.686 40.8482 111.959 41.1158 111.004 41.1158ZM111.004 6.53724C109.857 6.53724 108.958 6.25052 108.308 5.67708C107.697 5.10363 107.391 4.30081 107.391 3.26862C107.391 2.19819 107.697 1.39537 108.308 0.860162C108.958 0.286721 109.857 0 111.004 0C112.15 0 113.03 0.286721 113.641 0.860162C114.291 1.39537 114.616 2.19819 114.616 3.26862C114.616 4.30081 114.291 5.10363 113.641 5.67708C113.03 6.25052 112.15 6.53724 111.004 6.53724Z" fill="#999999"/>
<path d="M134.237 41.2878C131.408 41.2878 128.962 40.6953 126.897 39.5102C124.871 38.325 123.285 36.643 122.138 34.4639C120.991 32.2848 120.417 29.7234 120.417 26.7797C120.417 24.5242 120.742 22.5172 121.392 20.7586C122.042 19 122.96 17.49 124.145 16.2284C125.368 14.9286 126.821 13.9538 128.503 13.3039C130.223 12.6157 132.135 12.2717 134.237 12.2717C137.028 12.2717 139.437 12.8642 141.463 14.0493C143.527 15.2344 145.133 16.9165 146.28 19.0956C147.427 21.2365 148 23.7978 148 26.7797C148 28.9971 147.675 31.0041 147.025 32.8009C146.375 34.5977 145.439 36.1269 144.215 37.3884C143.03 38.65 141.577 39.6248 139.857 40.313C138.175 40.9629 136.302 41.2878 134.237 41.2878ZM134.237 36.815C135.805 36.815 137.181 36.4327 138.366 35.6681C139.551 34.9035 140.469 33.7757 141.119 32.2848C141.807 30.7938 142.151 28.9588 142.151 26.7797C142.151 23.492 141.425 21.0071 139.972 19.325C138.519 17.6429 136.608 16.8019 134.237 16.8019C132.632 16.8019 131.236 17.1841 130.051 17.9487C128.866 18.6751 127.93 19.7838 127.241 21.2747C126.592 22.7657 126.267 24.6007 126.267 26.7797C126.267 30.0293 126.993 32.5142 128.446 34.2345C129.898 35.9548 131.829 36.815 134.237 36.815Z" fill="#999999"/>
<path d="M2.86721 41.1732C1.9497 41.1732 1.24246 40.9247 0.745475 40.4277C0.248492 39.8925 0 39.1662 0 38.2487V15.311C0 14.3552 0.248492 13.6289 0.745475 13.1319C1.24246 12.6349 1.93059 12.3864 2.80987 12.3864C3.72737 12.3864 4.4155 12.6349 4.87426 13.1319C5.37124 13.6289 5.61973 14.3552 5.61973 15.311V19.7838L4.98895 18.7516C5.82999 16.6108 7.14891 15.0051 8.9457 13.9347C10.7425 12.8261 12.8069 12.2717 15.1389 12.2717C17.3562 12.2717 19.1912 12.6923 20.6439 13.5333C22.1349 14.3361 23.2435 15.5786 23.9699 17.2607C24.6962 18.9045 25.0594 20.988 25.0594 23.5112V38.2487C25.0594 39.1662 24.8109 39.8925 24.3139 40.4277C23.817 40.9247 23.1097 41.1732 22.1922 41.1732C21.2365 41.1732 20.5101 40.9247 20.0131 40.4277C19.5161 39.8925 19.2677 39.1662 19.2677 38.2487V23.8553C19.2677 21.4468 18.7898 19.6882 17.834 18.5796C16.9165 17.4709 15.4638 16.9166 13.4759 16.9166C11.1439 16.9166 9.27065 17.643 7.85616 19.0957C6.47989 20.5484 5.79176 22.4981 5.79176 24.9448V38.2487C5.79176 40.1984 4.81691 41.1732 2.86721 41.1732Z" fill="#ADEEF7"/>
</svg>
