<?xml version="1.0" encoding="utf-8"?>
<!-- Generator: Adobe Illustrator 25.2.3, SVG Export Plug-In . SVG Version: 6.00 Build 0)  -->
<svg version="1.1" id="Capa_1" xmlns="http://www.w3.org/2000/svg" xmlns:xlink="http://www.w3.org/1999/xlink" x="0px" y="0px"
	 viewBox="0 0 512 512" style="enable-background:new 0 0 512 512;" xml:space="preserve">
<style type="text/css">
	.st0{fill:none;stroke:#4080B9;stroke-width:15;stroke-linecap:round;stroke-linejoin:round;stroke-miterlimit:10;}
</style>
<g>
	<path class="st0" d="M358.9,80.2l-10.8-7.1h-76.8c-9.5,0-18.8,1.1-27.9,3.3l82.6,54.1c14,9.1,32.6,5.2,41.6-8.7
		C376.7,108,372.8,89.3,358.9,80.2z"/>
	<path class="st0" d="M153.1,431.8l10.8,7.1h76.8c9.5,0,18.8-1.1,27.9-3.3l-82.6-54.1c-14-9.1-32.6-5.2-41.6,8.7
		C135.3,404,139.2,422.7,153.1,431.8z"/>
	<path class="st0" d="M102.1,83.4l-79.1,53.8c-9.6,6.6-15.4,17.5-15.4,29.1v64.5c0,19.4,15.8,35.2,35.2,35.2h66.1
		c16.3,0,32.4-4.8,45.8-14.3c9.8-6.9,19-16.9,22.8-31c8.3,2.2,16.9,3.3,25.7,3.3h57.7c18.4,0,33.8-15.1,33.5-33.5
		c-0.3-17.8-14.9-32.2-32.8-32.2H203c-9,0-17.7-3.5-24.2-9.7l0,0c-12-11.5-10.3-31.1,3.4-40.4L203,94.2c20.1-13.7,43.9-21,68.3-21
		h103c17.9,0,32.5-14.4,32.8-32.2c0.4-18.4-15.1-33.5-33.5-33.5H271.2c-37.7,0-74,11.2-105.2,32.4l-39.5,26.8"/>
	<path class="st0" d="M178.8,148.7L178.8,148.7c6.5,6.2,15.2,9.7,24.2,9.7h55.6c-20.4-13.4-51.2-33.5-76.5-50.1
		C168.5,117.6,166.9,137.2,178.8,148.7z"/>
	<path class="st0" d="M314.4,123l-71.1-46.6c-14.3,3.4-28,9.4-40.3,17.7l-20.7,14.1c0,0,0,0-0.1,0c25.3,16.5,56,36.7,76.5,50.1h2.7
		c13.1,0,24.5,7.7,29.7,18.9c11.8,2.6,24.5-2.2,31.5-12.9C331.6,150.6,327.9,132.2,314.4,123z"/>
	<path class="st0" d="M405.7,431.5l83.4-56.7c9.6-6.6,15.4-17.5,15.4-29.1v-64.5c0-19.4-15.8-35.2-35.2-35.2h-66.1
		c-16.4,0-32.4,4.8-45.8,14.3c-9.8,6.9-19,16.9-22.8,31c-8.3-2.2-16.9-3.3-25.7-3.3h-57.7c-18.4,0-33.8,15.1-33.5,33.5
		c0.3,17.8,14.9,32.2,32.8,32.2H309c9,0,17.7,3.5,24.2,9.7l0,0c12,11.5,10.3,31.1-3.4,40.4L309,417.8c-20.1,13.7-43.9,21-68.3,21
		h-103c-17.9,0-32.5,14.4-32.8,32.2c-0.4,18.4,15.1,33.5,33.5,33.5h102.4c37.7,0,74-11.2,105.2-32.4l35.2-23.9"/>
	<path class="st0" d="M333.2,363.3L333.2,363.3c-6.5-6.2-15.2-9.7-24.2-9.7h-55.6l76.5,50.1C343.5,394.4,345.1,374.8,333.2,363.3z"
		/>
	<path class="st0" d="M197.6,389l71.1,46.6c14.3-3.4,28-9.4,40.3-17.7l20.7-14.1c0,0,0,0,0.1,0l-76.5-50.1h-2.7
		c-13.1,0-24.5-7.7-29.7-18.9c-11.8-2.6-24.5,2.2-31.5,12.9C180.4,361.4,184.1,379.8,197.6,389z"/>
</g>
</svg>
