<?xml version="1.0" encoding="utf-8"?>
<!-- Generator: Adobe Illustrator 25.2.3, SVG Export Plug-In . SVG Version: 6.00 Build 0)  -->
<svg version="1.1" id="Capa_1" xmlns="http://www.w3.org/2000/svg" xmlns:xlink="http://www.w3.org/1999/xlink" x="0px" y="0px"
	 viewBox="0 0 512 512" style="enable-background:new 0 0 512 512;" xml:space="preserve">
<style type="text/css">
	.st0{fill:none;stroke:#4080B9;stroke-width:15;stroke-linecap:round;stroke-linejoin:round;stroke-miterlimit:10;}
	.st1{fill:none;stroke:#4080B9;stroke-width:14.9999;stroke-linecap:round;stroke-linejoin:round;stroke-miterlimit:9.9999;}
</style>
<g>
	<g>
		<line class="st0" x1="367.1" y1="66.5" x2="359.6" y2="74"/>
		<line class="st0" x1="445.5" y1="144.9" x2="438" y2="152.4"/>
		<path class="st0" d="M388.7,102.7c-0.4,5.4,1.5,10.9,5.6,15c4.1,4.1,9.6,6,15,5.6"/>
	</g>
	<path class="st0" d="M389.5,44.7c-5.4-6.9-10.6-13.9-15.4-20.7c-13.7-19.7-41.9-22.2-58.9-5.2c-26.5,26.5-26.5,69.6,0,96.1
		l81.9,81.9c26.5,26.5,69.6,26.5,96.1,0c17-17,14.4-45.1-5.2-58.9c-21.5-15-44.3-34.1-62-51.9c-5.7-5.7-11.6-12-17.4-18.5"/>
	
		<rect x="251.7" y="186.3" transform="matrix(0.7071 -0.7071 0.7071 0.7071 -84.5711 264.89)" class="st1" width="51.5" height="96.5"/>
	<path class="st0" d="M197.3,183.3L197.3,183.3l28.9-28.9l0,0c8.2-8.2,8.2-21.4,0-29.5l0,0c-8.2-8.2-21.4-8.2-29.5,0l-28.9,28.9
		c-8.2,8.2-8.2,21.4,0,29.5C175.9,191.4,189.2,191.4,197.3,183.3z"/>
	<path class="st0" d="M387.1,285.8c-8.2-8.2-21.4-8.2-29.5,0l-28.9,28.9c-8.1,8.2-8.1,21.4,0,29.5l0,0c8.2,8.2,21.4,8.2,29.5,0
		l28.9-28.9C395.3,307.2,395.3,293.9,387.1,285.8L387.1,285.8z"/>
	<path class="st0" d="M165.2,315.3c2.6-2.6,5.6-4.4,8.9-5.4c1-27,12-52.2,31.2-71.3L322,121.7l-6.8-6.8c-9.1-9.1-15-20-17.9-31.6
		L173.7,206.9c-28.6,28.6-44.3,66.5-44.4,106.9l-0.1,37.3L165.2,315.3z"/>
	<path class="st0" d="M268.9,365.2c13.2-7,25.4-16,36.3-26.8l123.6-123.6c-11.6-2.9-22.6-8.8-31.6-17.9l-6.8-6.8L273.5,306.7
		c-19.2,19.2-44.4,30.2-71.3,31.2c-1.1,3.3-2.9,6.3-5.4,8.9l-35.9,35.9l37.3-0.1c14.8,0,29.4-2.2,43.2-6.3"/>
	<path class="st0" d="M83.6,396.8L83.6,396.8L83.6,396.8c0,0-27.4,0.5-64.8,28.7C5,435.9,3.7,456.1,15.9,468.4l27.8,27.8
		c12.2,12.2,32.5,10.9,42.8-2.9c28.2-37.4,28.7-64.8,28.7-64.8l0,0L83.6,396.8z"/>
	<path class="st0" d="M196.7,315.3c-8.7-8.7-22.9-8.7-31.6,0l-81.6,81.6l31.6,31.6l81.6-81.6C205.5,338.1,205.5,324,196.7,315.3z"/>
</g>
</svg>
