<?xml version="1.0" encoding="utf-8"?>
<!-- Generator: Adobe Illustrator 25.2.3, SVG Export Plug-In . SVG Version: 6.00 Build 0)  -->
<svg version="1.1" id="Capa_1" xmlns="http://www.w3.org/2000/svg" xmlns:xlink="http://www.w3.org/1999/xlink" x="0px" y="0px"
	 viewBox="0 0 512 512" style="enable-background:new 0 0 512 512;" xml:space="preserve">
<style type="text/css">
	.st0{fill:none;stroke:#4080B9;stroke-width:15;stroke-linecap:round;stroke-linejoin:round;stroke-miterlimit:10;}
</style>
<g>
	<circle class="st0" cx="134.9" cy="377" r="80.8"/>
	<circle class="st0" cx="134.9" cy="377" r="30.3"/>
	<circle class="st0" cx="390.4" cy="448.3" r="21.2"/>
	<path class="st0" d="M343.7,290.9h2.3c16.6,0,31.9,5.4,44.4,14.6v-35.7c0-25.3-20.5-45.9-45.9-45.9h-0.8L343.7,290.9L343.7,290.9z"
		/>
	<path class="st0" d="M165.6,172v81.3c24.7,6.1,46.5,19.4,63.1,37.6h68.8v-67h-64.9V172L165.6,172L165.6,172z"/>
	<path class="st0" d="M165.6,75.6v50.3h67V82.1c0-25.3-20.5-45.9-45.9-45.9H153C160.9,47.3,165.6,60.9,165.6,75.6z"/>
	<path class="st0" d="M236.2,454.1c16.3-21.4,26-48.1,26-77.1c0-70.3-57-127.4-127.4-127.4c-70.3,0-127.4,57-127.4,127.4
		c0,70.3,57,127.4,127.4,127.4c30.6,0,58.8-10.8,80.7-28.9"/>
	<path class="st0" d="M104.1,148.5v104.8c9.9-2.4,20.2-3.8,30.8-3.8s20.9,1.3,30.8,3.8V75.6c0-37.5-30.5-68-68-68H41.3
		c-17,0-30.8,13.8-30.8,30.8s13.8,30.8,30.8,30.8h56.4c3.5,0,6.4,2.9,6.4,6.4v42.9"/>
	<path class="st0" d="M297.5,206.2v84.8h46.2v-84.8c0-44.3-36-80.3-80.3-80.3h-97.8V172h97.8C282.2,172,297.5,187.4,297.5,206.2z"/>
	<path class="st0" d="M359.6,366.1v35.4c8.8-5.8,19.4-9.2,30.8-9.2s21.9,3.4,30.8,9.2v-35.4c0-41.4-33.7-75.2-75.2-75.2H228.8
		c15.5,16.9,26.5,38.1,31.1,61.6H346C353.5,352.5,359.6,358.6,359.6,366.1z"/>
	<path class="st0" d="M481.4,437.4h-36c0.7,3.5,1.1,7.2,1.1,10.9c0,13.4-4.7,25.7-12.6,35.3h47.5c12.8,0,23.1-10.3,23.1-23.1
		S494.2,437.4,481.4,437.4z"/>
	<circle class="st0" cx="390.4" cy="448.3" r="56"/>
</g>
</svg>
